<?xml version="1.0" standalone="no"?>
<!DOCTYPE svg PUBLIC "-//W3C//DTD SVG 20010904//EN"
 "http://www.w3.org/TR/2001/REC-SVG-20010904/DTD/svg10.dtd">
<svg version="1.0" xmlns="http://www.w3.org/2000/svg"
 width="1280.000000pt" height="640.000000pt" viewBox="0 0 1280.000000 640.000000"
 preserveAspectRatio="xMidYMid meet">
<metadata>
Created by potrace 1.15, written by Peter Selinger 2001-2017
</metadata>
<g transform="translate(0.000000,640.000000) scale(0.100000,-0.100000)"
fill="#000000" stroke="none">
<path d="M2800 5524 c-25 -2 -119 -9 -210 -15 -919 -60 -1726 -291 -2262 -649
-180 -120 -335 -258 -308 -275 16 -10 14 -1247 -2 -1263 -9 -9 -9 -15 0 -24
16 -16 16 -130 0 -146 -9 -9 -9 -15 0 -24 17 -17 17 -1309 0 -1326 -9 -9 -7
-16 6 -31 17 -19 19 -18 79 41 216 213 598 422 1037 569 574 191 1249 288
2011 289 588 0 1014 -63 1629 -240 422 -122 853 -288 1604 -617 767 -336 1035
-449 1331 -558 457 -169 884 -284 1260 -340 387 -57 915 -61 1390 -10 848 92
1633 357 2220 748 140 94 207 149 195 161 -14 14 -14 1322 0 1331 7 4 7 12 0
25 -14 26 -13 133 2 148 9 9 9 15 0 24 -16 16 -17 1249 -2 1264 7 7 5 16 -7
27 -17 15 -23 12 -83 -35 -421 -327 -1119 -619 -1795 -752 -429 -84 -766 -116
-1233 -116 -556 0 -968 67 -1572 257 -370 116 -701 249 -1645 663 -1280 560
-1888 753 -2685 851 -132 16 -239 21 -540 24 -206 1 -395 1 -420 -1z"/>
</g>
</svg>
